# xmcd
#
# Track frame offsets: 
#        150
#        1409
#        15683
#        18830
#        29947
#        43574
#        58219
#        72542
#        80579
#        96963
#        109708
#        128928
#        137186
#        140704
#        153301
#        166069
#        174381
#        189430
#        201265
#        215189
#        217724
#        231255
#        234143
#        247720
#        263081
#        276631
#
# Disc length: 3875 seconds
#
# Revision: 0
# Processed by: cddbd v1.5.2PL0 Copyright (c) Steve Scherf et al.
# Submitted via: ExactAudioCopy v0.99pb5
#
DISCID=790f211a
DTITLE=Cream  - Sirens Sweetly Singing - Disc 1 (lun)  FLAC
DYEAR=1900
DGENRE=
TTITLE0=Introduction
TTITLE1=Sweet Wine
TTITLE2=Clapton Interview
TTITLE3=Wrapping Paper
TTITLE4=Rollin' And Tumblin'
TTITLE5=Sleepy Time Time
TTITLE6=I'm So Glad
TTITLE7=Steppin' Out
TTITLE8=Cat's Squirrel
TTITLE9=Traintime
TTITLE10=I'm So Glad
TTITLE11=Lawdy Mama
TTITLE12=Clapton Interview
TTITLE13=I Feel Free
TTITLE14=N.S.U.
TTITLE15=Four Until Late
TTITLE16=Traintime
TTITLE17=Toad
TTITLE18=Strange Brew
TTITLE19=Clapton Interview
TTITLE20=Strange Brew
TTITLE21=Clapton Interview
TTITLE22=Tales Of Brave Ulysses
TTITLE23=We're Going Wrong
TTITLE24=Tales Of Brave Ulysses
TTITLE25=Take It Back
EXTD=
EXTT0=
EXTT1=
EXTT2=
EXTT3=
EXTT4=
EXTT5=
EXTT6=
EXTT7=
EXTT8=
EXTT9=
EXTT10=
EXTT11=
EXTT12=
EXTT13=
EXTT14=
EXTT15=
EXTT16=
EXTT17=
EXTT18=
EXTT19=
EXTT20=
EXTT21=
EXTT22=
EXTT23=
EXTT24=
EXTT25=
PLAYORDER=
